@startuml

title __SPRINGSECURITY's Class Diagram__\n

  namespace com.example.springsecurity {
    class com.example.denoSpringSecurityApplication {
        ~ passwordEncoder : PasswordEncoder
        {static} + main()
        + run()
    }
  }
  

  namespace com.example.springsecurity {
    class com.example.denoWebConfig {
        + corsConfigurer()
    }
  }
  

  com.example.denoSpringSecurityApplication .up.|> org.springframework.boot.CommandLineRunner
  com.example.denoSpringSecurityApplication o-- com.example.denorepository.RoleRepository : roleRepository
  com.example.denoSpringSecurityApplication o-- com.example.denorepository.UserRepository : userRepository


right footer


PlantUML diagram generated by SketchIt! (https://bitbucket.org/pmesmeur/sketch.it)
For more information about this tool, please contact philippe.mesmeur@gmail.com
endfooter

@enduml
